<?xml version="1.0" encoding="utf-8" standalone="no"?>
<!DOCTYPE svg PUBLIC "-//W3C//DTD SVG 1.1//EN"
  "http://www.w3.org/Graphics/SVG/1.1/DTD/svg11.dtd">
<!-- Created with matplotlib (https://matplotlib.org/) -->
<svg height="1440pt" version="1.1" viewBox="0 0 2880 1440" width="2880pt" xmlns="http://www.w3.org/2000/svg" xmlns:xlink="http://www.w3.org/1999/xlink">
 <defs>
  <style type="text/css">
*{stroke-linecap:butt;stroke-linejoin:round;}
  </style>
 </defs>
 <g id="figure_1">
  <g id="patch_1">
   <path d="M 0 1440 
L 2880 1440 
L 2880 0 
L 0 0 
z
" style="fill:#ffffff;"/>
  </g>
  <g id="axes_1">
   <g id="patch_2">
    <path d="M 360 1281.6 
L 2592 1281.6 
L 2592 172.8 
L 360 172.8 
z
" style="fill:#ffffff;"/>
   </g>
   <g id="matplotlib.axis_1">
    <g id="xtick_1"/>
    <g id="xtick_2"/>
    <g id="xtick_3"/>
    <g id="xtick_4"/>
    <g id="xtick_5"/>
    <g id="xtick_6"/>
    <g id="xtick_7"/>
    <g id="text_1">
     <!-- Reaction coordinate -->
     <defs>
      <path d="M 44.390625 34.1875 
Q 47.5625 33.109375 50.5625 29.59375 
Q 53.5625 26.078125 56.59375 19.921875 
L 66.609375 0 
L 56 0 
L 46.6875 18.703125 
Q 43.0625 26.03125 39.671875 28.421875 
Q 36.28125 30.8125 30.421875 30.8125 
L 19.671875 30.8125 
L 19.671875 0 
L 9.8125 0 
L 9.8125 72.90625 
L 32.078125 72.90625 
Q 44.578125 72.90625 50.734375 67.671875 
Q 56.890625 62.453125 56.890625 51.90625 
Q 56.890625 45.015625 53.6875 40.46875 
Q 50.484375 35.9375 44.390625 34.1875 
z
M 19.671875 64.796875 
L 19.671875 38.921875 
L 32.078125 38.921875 
Q 39.203125 38.921875 42.84375 42.21875 
Q 46.484375 45.515625 46.484375 51.90625 
Q 46.484375 58.296875 42.84375 61.546875 
Q 39.203125 64.796875 32.078125 64.796875 
z
" id="DejaVuSans-82"/>
      <path d="M 56.203125 29.59375 
L 56.203125 25.203125 
L 14.890625 25.203125 
Q 15.484375 15.921875 20.484375 11.0625 
Q 25.484375 6.203125 34.421875 6.203125 
Q 39.59375 6.203125 44.453125 7.46875 
Q 49.3125 8.734375 54.109375 11.28125 
L 54.109375 2.78125 
Q 49.265625 0.734375 44.1875 -0.34375 
Q 39.109375 -1.421875 33.890625 -1.421875 
Q 20.796875 -1.421875 13.15625 6.1875 
Q 5.515625 13.8125 5.515625 26.8125 
Q 5.515625 40.234375 12.765625 48.109375 
Q 20.015625 56 32.328125 56 
Q 43.359375 56 49.78125 48.890625 
Q 56.203125 41.796875 56.203125 29.59375 
z
M 47.21875 32.234375 
Q 47.125 39.59375 43.09375 43.984375 
Q 39.0625 48.390625 32.421875 48.390625 
Q 24.90625 48.390625 20.390625 44.140625 
Q 15.875 39.890625 15.1875 32.171875 
z
" id="DejaVuSans-101"/>
      <path d="M 34.28125 27.484375 
Q 23.390625 27.484375 19.1875 25 
Q 14.984375 22.515625 14.984375 16.5 
Q 14.984375 11.71875 18.140625 8.90625 
Q 21.296875 6.109375 26.703125 6.109375 
Q 34.1875 6.109375 38.703125 11.40625 
Q 43.21875 16.703125 43.21875 25.484375 
L 43.21875 27.484375 
z
M 52.203125 31.203125 
L 52.203125 0 
L 43.21875 0 
L 43.21875 8.296875 
Q 40.140625 3.328125 35.546875 0.953125 
Q 30.953125 -1.421875 24.3125 -1.421875 
Q 15.921875 -1.421875 10.953125 3.296875 
Q 6 8.015625 6 15.921875 
Q 6 25.140625 12.171875 29.828125 
Q 18.359375 34.515625 30.609375 34.515625 
L 43.21875 34.515625 
L 43.21875 35.40625 
Q 43.21875 41.609375 39.140625 45 
Q 35.0625 48.390625 27.6875 48.390625 
Q 23 48.390625 18.546875 47.265625 
Q 14.109375 46.140625 10.015625 43.890625 
L 10.015625 52.203125 
Q 14.9375 54.109375 19.578125 55.046875 
Q 24.21875 56 28.609375 56 
Q 40.484375 56 46.34375 49.84375 
Q 52.203125 43.703125 52.203125 31.203125 
z
" id="DejaVuSans-97"/>
      <path d="M 48.78125 52.59375 
L 48.78125 44.1875 
Q 44.96875 46.296875 41.140625 47.34375 
Q 37.3125 48.390625 33.40625 48.390625 
Q 24.65625 48.390625 19.8125 42.84375 
Q 14.984375 37.3125 14.984375 27.296875 
Q 14.984375 17.28125 19.8125 11.734375 
Q 24.65625 6.203125 33.40625 6.203125 
Q 37.3125 6.203125 41.140625 7.25 
Q 44.96875 8.296875 48.78125 10.40625 
L 48.78125 2.09375 
Q 45.015625 0.34375 40.984375 -0.53125 
Q 36.96875 -1.421875 32.421875 -1.421875 
Q 20.0625 -1.421875 12.78125 6.34375 
Q 5.515625 14.109375 5.515625 27.296875 
Q 5.515625 40.671875 12.859375 48.328125 
Q 20.21875 56 33.015625 56 
Q 37.15625 56 41.109375 55.140625 
Q 45.0625 54.296875 48.78125 52.59375 
z
" id="DejaVuSans-99"/>
      <path d="M 18.3125 70.21875 
L 18.3125 54.6875 
L 36.8125 54.6875 
L 36.8125 47.703125 
L 18.3125 47.703125 
L 18.3125 18.015625 
Q 18.3125 11.328125 20.140625 9.421875 
Q 21.96875 7.515625 27.59375 7.515625 
L 36.8125 7.515625 
L 36.8125 0 
L 27.59375 0 
Q 17.1875 0 13.234375 3.875 
Q 9.28125 7.765625 9.28125 18.015625 
L 9.28125 47.703125 
L 2.6875 47.703125 
L 2.6875 54.6875 
L 9.28125 54.6875 
L 9.28125 70.21875 
z
" id="DejaVuSans-116"/>
      <path d="M 9.421875 54.6875 
L 18.40625 54.6875 
L 18.40625 0 
L 9.421875 0 
z
M 9.421875 75.984375 
L 18.40625 75.984375 
L 18.40625 64.59375 
L 9.421875 64.59375 
z
" id="DejaVuSans-105"/>
      <path d="M 30.609375 48.390625 
Q 23.390625 48.390625 19.1875 42.75 
Q 14.984375 37.109375 14.984375 27.296875 
Q 14.984375 17.484375 19.15625 11.84375 
Q 23.34375 6.203125 30.609375 6.203125 
Q 37.796875 6.203125 41.984375 11.859375 
Q 46.1875 17.53125 46.1875 27.296875 
Q 46.1875 37.015625 41.984375 42.703125 
Q 37.796875 48.390625 30.609375 48.390625 
z
M 30.609375 56 
Q 42.328125 56 49.015625 48.375 
Q 55.71875 40.765625 55.71875 27.296875 
Q 55.71875 13.875 49.015625 6.21875 
Q 42.328125 -1.421875 30.609375 -1.421875 
Q 18.84375 -1.421875 12.171875 6.21875 
Q 5.515625 13.875 5.515625 27.296875 
Q 5.515625 40.765625 12.171875 48.375 
Q 18.84375 56 30.609375 56 
z
" id="DejaVuSans-111"/>
      <path d="M 54.890625 33.015625 
L 54.890625 0 
L 45.90625 0 
L 45.90625 32.71875 
Q 45.90625 40.484375 42.875 44.328125 
Q 39.84375 48.1875 33.796875 48.1875 
Q 26.515625 48.1875 22.3125 43.546875 
Q 18.109375 38.921875 18.109375 30.90625 
L 18.109375 0 
L 9.078125 0 
L 9.078125 54.6875 
L 18.109375 54.6875 
L 18.109375 46.1875 
Q 21.34375 51.125 25.703125 53.5625 
Q 30.078125 56 35.796875 56 
Q 45.21875 56 50.046875 50.171875 
Q 54.890625 44.34375 54.890625 33.015625 
z
" id="DejaVuSans-110"/>
      <path id="DejaVuSans-32"/>
      <path d="M 41.109375 46.296875 
Q 39.59375 47.171875 37.8125 47.578125 
Q 36.03125 48 33.890625 48 
Q 26.265625 48 22.1875 43.046875 
Q 18.109375 38.09375 18.109375 28.8125 
L 18.109375 0 
L 9.078125 0 
L 9.078125 54.6875 
L 18.109375 54.6875 
L 18.109375 46.1875 
Q 20.953125 51.171875 25.484375 53.578125 
Q 30.03125 56 36.53125 56 
Q 37.453125 56 38.578125 55.875 
Q 39.703125 55.765625 41.0625 55.515625 
z
" id="DejaVuSans-114"/>
      <path d="M 45.40625 46.390625 
L 45.40625 75.984375 
L 54.390625 75.984375 
L 54.390625 0 
L 45.40625 0 
L 45.40625 8.203125 
Q 42.578125 3.328125 38.25 0.953125 
Q 33.9375 -1.421875 27.875 -1.421875 
Q 17.96875 -1.421875 11.734375 6.484375 
Q 5.515625 14.40625 5.515625 27.296875 
Q 5.515625 40.1875 11.734375 48.09375 
Q 17.96875 56 27.875 56 
Q 33.9375 56 38.25 53.625 
Q 42.578125 51.265625 45.40625 46.390625 
z
M 14.796875 27.296875 
Q 14.796875 17.390625 18.875 11.75 
Q 22.953125 6.109375 30.078125 6.109375 
Q 37.203125 6.109375 41.296875 11.75 
Q 45.40625 17.390625 45.40625 27.296875 
Q 45.40625 37.203125 41.296875 42.84375 
Q 37.203125 48.484375 30.078125 48.484375 
Q 22.953125 48.484375 18.875 42.84375 
Q 14.796875 37.203125 14.796875 27.296875 
z
" id="DejaVuSans-100"/>
     </defs>
     <g transform="translate(1076.20625 1346.3875)scale(0.8 -0.8)">
      <use xlink:href="#DejaVuSans-82"/>
      <use x="64.982422" xlink:href="#DejaVuSans-101"/>
      <use x="126.505859" xlink:href="#DejaVuSans-97"/>
      <use x="187.785156" xlink:href="#DejaVuSans-99"/>
      <use x="242.765625" xlink:href="#DejaVuSans-116"/>
      <use x="281.974609" xlink:href="#DejaVuSans-105"/>
      <use x="309.757812" xlink:href="#DejaVuSans-111"/>
      <use x="370.939453" xlink:href="#DejaVuSans-110"/>
      <use x="434.318359" xlink:href="#DejaVuSans-32"/>
      <use x="466.105469" xlink:href="#DejaVuSans-99"/>
      <use x="521.085938" xlink:href="#DejaVuSans-111"/>
      <use x="582.267578" xlink:href="#DejaVuSans-111"/>
      <use x="643.449219" xlink:href="#DejaVuSans-114"/>
      <use x="682.8125" xlink:href="#DejaVuSans-100"/>
      <use x="746.289062" xlink:href="#DejaVuSans-105"/>
      <use x="774.072266" xlink:href="#DejaVuSans-110"/>
      <use x="837.451172" xlink:href="#DejaVuSans-97"/>
      <use x="898.730469" xlink:href="#DejaVuSans-116"/>
      <use x="937.939453" xlink:href="#DejaVuSans-101"/>
     </g>
    </g>
   </g>
   <g id="matplotlib.axis_2">
    <g id="ytick_1"/>
    <g id="ytick_2"/>
    <g id="ytick_3"/>
    <g id="ytick_4"/>
    <g id="text_2">
     <!-- Free energy -->
     <defs>
      <path d="M 9.8125 72.90625 
L 51.703125 72.90625 
L 51.703125 64.59375 
L 19.671875 64.59375 
L 19.671875 43.109375 
L 48.578125 43.109375 
L 48.578125 34.8125 
L 19.671875 34.8125 
L 19.671875 0 
L 9.8125 0 
z
" id="DejaVuSans-70"/>
      <path d="M 45.40625 27.984375 
Q 45.40625 37.75 41.375 43.109375 
Q 37.359375 48.484375 30.078125 48.484375 
Q 22.859375 48.484375 18.828125 43.109375 
Q 14.796875 37.75 14.796875 27.984375 
Q 14.796875 18.265625 18.828125 12.890625 
Q 22.859375 7.515625 30.078125 7.515625 
Q 37.359375 7.515625 41.375 12.890625 
Q 45.40625 18.265625 45.40625 27.984375 
z
M 54.390625 6.78125 
Q 54.390625 -7.171875 48.1875 -13.984375 
Q 42 -20.796875 29.203125 -20.796875 
Q 24.46875 -20.796875 20.265625 -20.09375 
Q 16.0625 -19.390625 12.109375 -17.921875 
L 12.109375 -9.1875 
Q 16.0625 -11.328125 19.921875 -12.34375 
Q 23.78125 -13.375 27.78125 -13.375 
Q 36.625 -13.375 41.015625 -8.765625 
Q 45.40625 -4.15625 45.40625 5.171875 
L 45.40625 9.625 
Q 42.625 4.78125 38.28125 2.390625 
Q 33.9375 0 27.875 0 
Q 17.828125 0 11.671875 7.65625 
Q 5.515625 15.328125 5.515625 27.984375 
Q 5.515625 40.671875 11.671875 48.328125 
Q 17.828125 56 27.875 56 
Q 33.9375 56 38.28125 53.609375 
Q 42.625 51.21875 45.40625 46.390625 
L 45.40625 54.6875 
L 54.390625 54.6875 
z
" id="DejaVuSans-103"/>
      <path d="M 32.171875 -5.078125 
Q 28.375 -14.84375 24.75 -17.8125 
Q 21.140625 -20.796875 15.09375 -20.796875 
L 7.90625 -20.796875 
L 7.90625 -13.28125 
L 13.1875 -13.28125 
Q 16.890625 -13.28125 18.9375 -11.515625 
Q 21 -9.765625 23.484375 -3.21875 
L 25.09375 0.875 
L 2.984375 54.6875 
L 12.5 54.6875 
L 29.59375 11.921875 
L 46.6875 54.6875 
L 56.203125 54.6875 
z
" id="DejaVuSans-121"/>
     </defs>
     <g transform="translate(339.3625 964.175)rotate(-90)scale(0.8 -0.8)">
      <use xlink:href="#DejaVuSans-70"/>
      <use x="50.269531" xlink:href="#DejaVuSans-114"/>
      <use x="89.132812" xlink:href="#DejaVuSans-101"/>
      <use x="150.65625" xlink:href="#DejaVuSans-101"/>
      <use x="212.179688" xlink:href="#DejaVuSans-32"/>
      <use x="243.966797" xlink:href="#DejaVuSans-101"/>
      <use x="305.490234" xlink:href="#DejaVuSans-110"/>
      <use x="368.869141" xlink:href="#DejaVuSans-101"/>
      <use x="430.392578" xlink:href="#DejaVuSans-114"/>
      <use x="469.755859" xlink:href="#DejaVuSans-103"/>
      <use x="533.232422" xlink:href="#DejaVuSans-121"/>
     </g>
    </g>
   </g>
   <g id="line2d_1">
    <path clip-path="url(#p66496ec05d)" d="M 671.890287 -1 
L 675.198891 110.888422 
L 678.979903 226.972696 
L 682.760915 332.284721 
L 686.541927 427.744816 
L 690.322938 514.193944 
L 694.10395 592.400795 
L 697.884962 663.06821 
L 701.665974 726.838997 
L 705.446985 784.301227 
L 709.227997 835.993034 
L 713.009009 882.406979 
L 716.790021 923.994013 
L 720.571033 961.167093 
L 724.352044 994.304453 
L 728.133056 1023.752599 
L 731.914068 1049.829029 
L 735.69508 1072.824708 
L 739.476091 1093.006327 
L 743.257103 1110.618367 
L 747.038115 1125.884971 
L 750.819127 1139.011661 
L 754.600139 1150.186904 
L 758.38115 1159.583536 
L 762.162162 1167.360074 
L 765.943174 1173.6619 
L 769.724186 1178.622358 
L 773.505198 1182.36375 
L 777.286209 1184.998244 
L 781.067221 1186.628713 
L 784.848233 1187.349498 
L 788.629245 1187.247107 
L 792.410256 1186.400855 
L 796.191268 1184.883454 
L 799.97228 1182.761549 
L 803.753292 1180.09621 
L 807.534304 1176.943392 
L 811.315315 1173.354339 
L 815.096327 1169.375975 
L 818.877339 1165.051249 
L 822.658351 1160.419455 
L 826.439362 1155.516531 
L 830.220374 1150.375326 
L 837.782398 1139.495507 
L 845.344421 1127.990015 
L 852.906445 1116.03344 
L 864.24948 1097.562191 
L 902.059598 1035.215421 
L 913.402633 1017.061695 
L 924.745669 999.368137 
L 936.088704 982.191899 
L 947.431739 965.565723 
L 958.774775 949.504075 
L 970.11781 934.007942 
L 981.460845 919.068606 
L 992.803881 904.67059 
L 1004.146916 890.793958 
L 1015.489951 877.416115 
L 1026.832987 864.513197 
L 1038.176022 852.061143 
L 1049.519058 840.036508 
L 1060.862093 828.417086 
L 1072.205128 817.182353 
L 1083.548164 806.313795 
L 1094.891199 795.795119 
L 1106.234234 785.612386 
L 1117.57727 775.754066 
L 1128.920305 766.211043 
L 1140.26334 756.976564 
L 1151.606376 748.046155 
L 1162.949411 739.417498 
L 1174.292446 731.090283 
L 1185.635482 723.066035 
L 1196.978517 715.347919 
L 1208.321552 707.94054 
L 1219.664588 700.849714 
L 1231.007623 694.082244 
L 1242.350658 687.645684 
L 1253.693694 681.548096 
L 1265.036729 675.797815 
L 1276.379764 670.403211 
L 1283.941788 667.008457 
L 1291.503812 663.777747 
L 1299.065835 660.713295 
L 1306.627859 657.817175 
L 1314.189882 655.091296 
L 1321.751906 652.537376 
L 1329.313929 650.156919 
L 1336.875953 647.951192 
L 1344.437976 645.921207 
L 1352 644.067702 
L 1359.562024 642.391122 
L 1367.124047 640.891607 
L 1374.686071 639.56898 
L 1382.248094 638.422732 
L 1389.810118 637.452018 
L 1397.372141 636.65565 
L 1404.934165 636.032091 
L 1412.496188 635.579453 
L 1420.058212 635.295499 
L 1427.620236 635.177643 
L 1435.182259 635.222957 
L 1442.744283 635.428173 
L 1450.306306 635.789696 
L 1457.86833 636.303609 
L 1469.211365 637.350893 
L 1480.554401 638.716009 
L 1491.897436 640.382111 
L 1503.240471 642.331116 
L 1514.583507 644.543852 
L 1525.926542 647.000219 
L 1537.269577 649.67935 
L 1548.612613 652.559791 
L 1563.73666 656.675692 
L 1578.860707 661.058172 
L 1593.984754 665.654835 
L 1612.889813 671.62326 
L 1643.137907 681.459258 
L 1684.729037 694.970183 
L 1707.415107 702.074333 
L 1726.320166 707.751136 
L 1741.444213 712.098025 
L 1756.568261 716.250179 
L 1771.692308 720.191837 
L 1786.816355 723.911191 
L 1801.940402 727.400178 
L 1817.064449 730.654229 
L 1832.188496 733.671975 
L 1847.312543 736.454928 
L 1862.43659 739.007141 
L 1877.560638 741.334863 
L 1892.684685 743.446187 
L 1907.808732 745.350716 
L 1922.932779 747.059228 
L 1941.837838 748.937026 
L 1960.742897 750.550756 
L 1979.647956 751.925038 
L 1998.553015 753.084479 
L 2021.239085 754.225995 
L 2043.925156 755.132252 
L 2070.392238 755.940939 
L 2096.859321 756.53149 
L 2127.107415 756.99732 
L 2164.917533 757.347741 
L 2210.289674 757.539743 
L 2274.566875 757.572047 
L 2399.340263 757.356286 
L 2667.7921 756.907643 
L 2881 756.711467 
L 2881 756.711467 
" style="fill:none;stroke:#1f77b4;stroke-linecap:square;stroke-width:10;"/>
   </g>
   <g id="line2d_2">
    <path clip-path="url(#p66496ec05d)" d="M 360 756.378947 
L 2592 756.378947 
" style="fill:none;stroke:#000000;stroke-linecap:square;stroke-width:1.5;"/>
   </g>
   <g id="line2d_3">
    <path clip-path="url(#p66496ec05d)" d="M 531.692308 1281.6 
L 531.692308 172.8 
" style="fill:none;stroke:#000000;stroke-linecap:square;stroke-width:1.5;"/>
   </g>
   <g id="patch_3">
    <path d="M 360 1281.6 
L 360 172.8 
" style="fill:none;stroke:#000000;stroke-linecap:square;stroke-linejoin:miter;stroke-width:0.8;"/>
   </g>
   <g id="patch_4">
    <path d="M 2592 1281.6 
L 2592 172.8 
" style="fill:none;stroke:#000000;stroke-linecap:square;stroke-linejoin:miter;stroke-width:0.8;"/>
   </g>
   <g id="patch_5">
    <path d="M 360 1281.6 
L 2592 1281.6 
" style="fill:none;stroke:#000000;stroke-linecap:square;stroke-linejoin:miter;stroke-width:0.8;"/>
   </g>
   <g id="patch_6">
    <path d="M 360 172.8 
L 2592 172.8 
" style="fill:none;stroke:#000000;stroke-linecap:square;stroke-linejoin:miter;stroke-width:0.8;"/>
   </g>
  </g>
 </g>
 <defs>
  <clipPath id="p66496ec05d">
   <rect height="1108.8" width="2232" x="360" y="172.8"/>
  </clipPath>
 </defs>
</svg>
